<?xml version="1.0" encoding="UTF-8"?>
<!DOCTYPE svg PUBLIC "-//W3C//DTD SVG 1.1//EN" "http://www.w3.org/Graphics/SVG/1.1/DTD/svg11.dtd">
<!-- Creator: CorelDRAW -->
<svg xmlns="http://www.w3.org/2000/svg" xml:space="preserve" width="381mm" height="3222.94mm" version="1.1" style="shape-rendering:geometricPrecision; text-rendering:geometricPrecision; image-rendering:optimizeQuality; fill-rule:evenodd; clip-rule:evenodd"
viewBox="0 0 759.26 6422.7"
 xmlns:xlink="http://www.w3.org/1999/xlink"
 xmlns:xodm="http://www.corel.com/coreldraw/odm/2003">
 <defs>
  <style type="text/css">
   <![CDATA[
    .fil0 {fill:#F4F4F4}
   ]]>
  </style>
 </defs>
 <g id="_0">
  <metadata id="CorelCorpID_0Corel-Layer"/>
  <path class="fil0" d="M379.63 1104.67l0 0zm0 1002.01l0 0zm-95.81 -501.01l-82.59 123.89 -82.59 -123.89 82.59 -123.89 82.59 123.89zm187.07 171.1l-68.44 102.66 41.53 62.3 -22.81 34.22 -41.53 -62.3 -41.53 62.3 -22.81 -34.22 41.53 -62.3 -68.44 -102.66 -64.34 96.52 155.6 233.39 155.6 -233.39 -64.34 -96.52zm87.16 -294.99l82.59 123.89 -82.59 123.89 -82.59 -123.89 82.59 -123.89zm-356.82 783.01l82.59 -123.89 -82.59 -123.89 -82.59 123.89 82.59 123.89zm356.82 -247.78l-82.59 123.89 82.59 123.89 82.59 -123.89 -82.59 -123.89zm-178.41 693.34l-155.6 233.39 155.6 233.39 0 0 155.6 -233.39 -155.6 -233.39zm0 -246.38l-96.28 -144.42 96.28 -144.42 96.28 144.42 -96.28 144.42zm82.59 479.77l-82.59 123.89 -82.59 -123.89 82.59 -123.89 82.59 123.89zm-261 391.5l82.59 -123.89 -82.59 -123.89 -82.59 123.89 82.59 123.89zm0 109.5l155.6 -233.39 -155.6 -233.39 -155.6 233.39 155.6 233.39zm439.41 -233.39l-82.59 -123.89 -82.59 123.89 82.59 123.89 82.59 -123.89zm73 0l-155.6 -233.39 -155.6 233.39 155.6 233.39 155.6 -233.39zm-192.1 -891.81l-141.91 212.86 -141.91 -212.86 119.09 -178.64 -155.6 -233.39 -155.6 233.39 334 501.01 0 0 334 -501.01 -155.6 -233.39 -155.6 233.39 119.09 178.64zm-228.6 -713.87l86.69 130.03 86.69 -130.03 -86.69 -130.03 -86.69 130.03zm-68.91 -267.61l155.6 -233.39 155.6 233.39 -64.34 96.52 -68.44 -102.66 41.53 -62.3 -22.81 -34.22 -41.53 62.3 -41.53 -62.3 -22.81 34.22 41.53 62.3 -68.44 102.66 -64.34 -96.52zm-22.81 -391.5l82.59 123.89 -82.59 123.89 -82.59 -123.89 82.59 -123.89zm356.82 247.78l-82.59 -123.89 82.59 -123.89 82.59 123.89 -82.59 123.89zm-178.41 -693.34l-155.6 -233.39 155.6 -233.39 0 0 155.6 233.39 -155.6 233.39zm0 246.38l-96.28 144.42 96.28 144.42 96.28 -144.42 -96.28 -144.42zm82.59 -479.77l-82.59 -123.89 -82.59 123.89 82.59 123.89 82.59 -123.89zm-416.6 802.84l334 -501.01 0 0 334 501.01 -155.6 233.39 -155.6 -233.39 119.09 -178.64 -141.91 -212.86 -141.91 212.86 119.09 178.64 -155.6 233.39 -155.6 -233.39zm334 774.76l-91.25 -136.88 -87.16 130.74 -155.6 -233.39 155.6 -233.39 87.16 130.74 91.25 -136.88 91.25 136.88 87.16 -130.74 155.6 233.39 -155.6 233.39 -87.16 -130.74 -91.25 136.88zm-95.81 2971.82l-82.59 -123.89 -82.59 123.89 82.59 123.89 82.59 -123.89zm137.35 -370.27l-41.53 62.3 -41.53 -62.3 -22.81 34.22 41.53 62.3 -68.44 102.66 -64.34 -96.52 155.6 -233.39 155.6 233.39 -64.34 96.52 -68.44 -102.66 41.53 -62.3 -22.81 -34.22zm136.88 494.16l82.59 -123.89 -82.59 -123.89 -82.59 123.89 82.59 123.89zm-356.82 -783.01l82.59 123.89 -82.59 123.89 -82.59 -123.89 82.59 -123.89zm356.82 247.78l-82.59 -123.89 82.59 -123.89 82.59 123.89 -82.59 123.89zm-178.41 -693.34l-155.6 -233.39 155.6 -233.39 0 0 155.6 233.39 -155.6 233.39zm0 246.38l-96.28 144.42 96.28 144.42 96.28 -144.42 -96.28 -144.42zm82.59 -479.77l-82.59 -123.89 -82.59 123.89 82.59 123.89 82.59 -123.89zm59.31 624.2l-141.91 -212.86 -141.91 212.86 119.09 178.64 -155.6 233.39 -155.6 -233.39 334 -501.01 0 0 334 501.01 -155.6 233.39 -155.6 -233.39 119.09 -178.64zm-228.6 713.87l86.69 -130.03 86.69 130.03 -86.69 130.03 -86.69 -130.03zm-68.91 267.61l155.6 233.39 155.6 -233.39 -64.34 -96.52 -68.44 102.66 41.53 62.3 -22.81 34.22 -41.53 -62.3 -41.53 62.3 -22.81 -34.22 41.53 -62.3 -68.44 -102.66 -64.34 96.52zm-22.81 391.5l82.59 -123.89 -82.59 -123.89 -82.59 123.89 82.59 123.89zm356.82 -247.78l-82.59 123.89 82.59 123.89 82.59 -123.89 -82.59 -123.89zm-178.41 693.34l-155.6 233.39 155.6 233.39 0 0 155.6 -233.39 -155.6 -233.39zm0 -246.38l-96.28 -144.42 96.28 -144.42 96.28 144.42 -96.28 144.42zm82.59 479.77l-82.59 123.89 -82.59 -123.89 82.59 -123.89 82.59 123.89zm-416.6 -802.84l334 501.01 0 0 334 -501.01 -155.6 -233.39 -155.6 233.39 119.09 178.64 -141.91 212.86 -141.91 -212.86 119.09 -178.64 -155.6 -233.39 -155.6 233.39zm334 -774.76l-91.25 136.88 -87.16 -130.74 -155.6 233.39 155.6 233.39 87.16 -130.74 91.25 136.88 91.25 -136.88 87.16 130.74 155.6 -233.39 -155.6 -233.39 -87.16 130.74 -91.25 -136.88zm22.81 -4577.49l-45.63 0 -155.6 233.39 -155.6 -233.39 -45.63 0 178.41 267.61 -178.41 267.61 141.91 212.86 141.91 -212.86 -82.59 -123.89 -22.81 34.22 59.78 89.67 -96.28 144.42 -96.28 -144.42 155.6 -233.39 155.6 233.39 -356.82 535.23 178.41 267.61 -178.41 267.61 178.41 267.61 -178.41 267.61 356.82 535.23 -155.6 233.39 -155.6 -233.39 96.28 -144.42 96.28 144.42 -59.78 89.67 22.81 34.22 82.59 -123.89 -141.91 -212.86 -141.91 212.86 178.41 267.61 -178.41 267.61 178.41 267.61 -178.41 267.61 141.91 212.86 141.91 -212.86 -82.59 -123.89 -22.81 34.22 59.78 89.67 -96.28 144.42 -96.28 -144.42 155.6 -233.39 155.6 233.39 -356.82 535.23 178.41 267.61 -178.41 267.61 178.41 267.61 -178.41 267.61 356.82 535.23 -155.6 233.39 -155.6 -233.39 96.28 -144.42 96.28 144.42 -59.78 89.67 22.81 34.22 82.59 -123.89 -141.91 -212.86 -141.91 212.86 178.41 267.61 -178.41 267.61 45.63 0 155.6 -233.39 155.6 233.39 45.63 0 155.6 -233.39 155.6 233.39 45.63 0 -178.41 -267.61 178.41 -267.61 -141.91 -212.86 -141.91 212.86 82.59 123.89 22.81 -34.22 -59.78 -89.67 96.28 -144.42 96.28 144.42 -155.6 233.39 -155.6 -233.39 356.82 -535.23 -178.41 -267.61 178.41 -267.61 -178.41 -267.61 178.41 -267.61 -356.82 -535.23 155.6 -233.39 155.6 233.39 -96.28 144.42 -96.28 -144.42 59.78 -89.67 -22.81 -34.22 -82.59 123.89 141.91 212.86 141.91 -212.86 -178.41 -267.61 178.41 -267.61 -178.41 -267.61 178.41 -267.61 -141.91 -212.86 -141.91 212.86 82.59 123.89 22.81 -34.22 -59.78 -89.67 96.28 -144.42 96.28 144.42 -155.6 233.39 -155.6 -233.39 356.82 -535.23 -178.41 -267.61 178.41 -267.61 -178.41 -267.61 178.41 -267.61 -356.82 -535.23 155.6 -233.39 155.6 233.39 -96.28 144.42 -96.28 -144.42 59.78 -89.67 -22.81 -34.22 -82.59 123.89 141.91 212.86 141.91 -212.86 -178.41 -267.61 178.41 -267.61 -45.63 0 -155.6 233.39 -155.6 -233.39zm-283.82 0l82.59 123.89 82.59 -123.89 -165.19 0zm356.82 0l82.59 123.89 82.59 -123.89 -165.19 0zm0 6422.7l82.59 -123.89 82.59 123.89 -165.19 0zm-356.82 0l82.59 -123.89 82.59 123.89 -165.19 0z"/>
 </g>
</svg>
