<svg version="1.2" baseProfile="tiny-ps" xmlns="http://www.w3.org/2000/svg" viewBox="0 0 1070 1532" width="1070" height="1532">
	<title>download (1)-svg</title>
	<style>
		tspan { white-space:pre }
		.shp0 { fill: #0468ff } 
	</style>
	<path id="Layer" fill-rule="evenodd" class="shp0" d="M812.47 0.93C954.32 0.93 1069.32 116.81 1069.32 259.73C1069.35 273.71 1068.24 287.67 1066.02 301.47C1063.79 315.26 1060.45 328.86 1056.03 342.12C1051.61 355.38 1046.12 368.27 1039.61 380.64C1033.11 393.02 1025.62 404.85 1017.2 416.02L812.47 667.89L624.86 439.88L607.79 416.06C599.37 404.89 591.87 393.06 585.36 380.69C578.86 368.31 573.36 355.43 568.94 342.17C564.51 328.91 561.17 315.31 558.94 301.51C556.71 287.71 555.6 273.75 555.63 259.77C555.63 116.81 670.63 0.98 812.52 0.98L812.47 0.93ZM812.47 377.83C812.48 377.83 812.49 377.83 812.5 377.83C812.5 377.83 812.51 377.83 812.52 377.83L812.47 377.83ZM694.73 259.19C694.73 193.65 747.44 140.5 812.52 140.5C877.51 140.5 930.26 193.65 930.26 259.19C930.26 324.72 877.52 377.82 812.5 377.83C747.43 377.82 694.73 324.72 694.73 259.19ZM910.53 769.09L720.27 769.09L720.27 973.07L530.13 742.88L0.66 1383.82L176.79 1531.54L530.13 1103.85L883.48 1531.54L1059.56 1383.82L910.53 1203.38L910.53 769.09Z" />
</svg>