<?xml version="1.0" encoding="UTF-8"?>
<!DOCTYPE svg PUBLIC "-//W3C//DTD SVG 1.1//EN" "http://www.w3.org/Graphics/SVG/1.1/DTD/svg11.dtd">
<!-- Creator: CorelDRAW -->
<svg xmlns="http://www.w3.org/2000/svg" xml:space="preserve" width="33.6435mm" height="33.6435mm" version="1.1" style="shape-rendering:geometricPrecision; text-rendering:geometricPrecision; image-rendering:optimizeQuality; fill-rule:evenodd; clip-rule:evenodd"
viewBox="0 0 37.79 37.79"
 xmlns:xlink="http://www.w3.org/1999/xlink"
 xmlns:xodm="http://www.corel.com/coreldraw/odm/2003">
 <defs>
  <style type="text/css">
   <![CDATA[
    .str0 {stroke:#821333;stroke-width:0.09;stroke-miterlimit:22.9256}
    .fil0 {fill:#FFED00}
   ]]>
  </style>
 </defs>
 <g id="Слой_x0020_1">
  <metadata id="CorelCorpID_0Corel-Layer"/>
  <path class="fil0 str0" d="M20.48 17.31l0 -4.42c2.16,0.57 3.85,2.26 4.42,4.42l-4.42 0zm-1.27 0l0 -4.62c0.21,0.01 0.42,0.03 0.63,0.07l0 4.56 -0.63 0zm-1.27 0l0 -4.56c0.21,-0.03 0.42,-0.05 0.63,-0.07l0 4.62 -0.63 0zm-5.06 0c0.57,-2.16 2.26,-3.85 4.42,-4.42l0 4.42 -4.42 0zm7.6 1.27l0 -0.63 4.56 0c0.03,0.21 0.05,0.42 0.07,0.63l-4.62 0zm-1.27 0l0 -0.63 0.63 0 0 0.63 -0.63 0zm-1.27 0l0 -0.63 0.63 0 0 0.63 -0.63 0zm2.54 1.27l0 -0.63 4.62 0c-0.01,0.21 -0.03,0.42 -0.07,0.63l-4.56 0zm-7.79 -1.27c0.01,-0.21 0.03,-0.42 0.07,-0.63l4.56 0 0 0.63 -4.62 0zm6.52 1.27l0 -0.63 0.63 0 0 0.63 -0.63 0zm-1.27 0l0 -0.63 0.63 0 0 0.63 -0.63 0zm-5.19 0c-0.03,-0.21 -0.05,-0.42 -0.07,-0.63l4.62 0 0 0.63 -4.56 0zm7.73 5.06l0 -4.42 4.42 0c-0.57,2.16 -2.26,3.85 -4.42,4.42zm-1.27 0.2l0 -4.62 0.63 0 0 4.56c-0.21,0.03 -0.42,0.05 -0.63,0.07zm-1.27 -0.07l0 -4.56 0.63 0 0 4.62c-0.21,-0.01 -0.42,-0.03 -0.63,-0.07zm-5.06 -4.56l4.42 0 0 4.42c-2.16,-0.57 -3.85,-2.26 -4.42,-4.42zm0.72 -6.88c1.89,-1.89 4.65,-2.63 7.23,-1.94 2.58,0.69 4.6,2.71 5.29,5.29 0.69,2.58 -0.05,5.34 -1.94,7.23 -1.89,1.89 -4.65,2.63 -7.23,1.94 -2.58,-0.69 -4.6,-2.71 -5.29,-5.29 -0.69,-2.58 0.05,-5.34 1.94,-7.23zm-6.37 5.29l11.66 -11.66 11.66 11.66 -11.66 11.66 -11.66 -11.66zm21.52 14.35l-3.59 -3.59 -2.69 2.69 0.9 0.9 1.79 -1.79 1.79 1.79 -2.69 2.69 -4.48 -4.48 11.66 -11.66 4.48 4.48 -2.69 2.69 -1.79 -1.79 1.79 -1.79 -0.9 -0.9 -2.69 2.69 3.59 3.59 4.48 -4.48 -5.38 -5.38 5.38 -5.38 -4.48 -4.48 -3.59 3.59 2.69 2.69 0.9 -0.9 -1.79 -1.79 1.79 -1.79 2.69 2.69 -4.48 4.48 -11.66 -11.66 4.48 -4.48 2.69 2.69 -1.79 1.79 -1.79 -1.79 -0.9 0.9 2.69 2.69 3.59 -3.59 -4.48 -4.48 -5.38 5.38 -5.38 -5.38 -4.48 4.48 3.59 3.59 2.69 -2.69 -0.9 -0.9 -1.79 1.79 -1.79 -1.79 2.69 -2.69 4.48 4.48 -11.66 11.66 -4.48 -4.48 2.69 -2.69 1.79 1.79 -1.79 1.79 0.9 0.9 2.69 -2.69 -3.59 -3.59 -4.48 4.48 5.38 5.38 -5.38 5.38 4.48 4.48 3.59 -3.59 -2.69 -2.69 -0.9 0.9 1.79 1.79 -1.79 1.79 -2.69 -2.69 4.48 -4.48 11.66 11.66 -4.48 4.48 -2.69 -2.69 1.79 -1.79 1.79 1.79 0.9 -0.9 -2.69 -2.69 -3.59 3.59 4.48 4.48 5.38 -5.38 5.38 5.38 4.48 -4.48z"/>
 </g>
</svg>
